<svg id="Group_121" data-name="Group 121" xmlns="http://www.w3.org/2000/svg" viewBox="0 0 660.334 49">
  <g id="Group_111" data-name="Group 111">
    <g id="Group_109" data-name="Group 109">
      <path id="Path_76" data-name="Path 76" d="M669.667,826.551H369.833v-4.666H669.667a19.833,19.833,0,1,0-19.834-19.834h-4.666a24.5,24.5,0,1,1,24.5,24.5Z" transform="translate(-369.833 -777.551)"/>
    </g>
    <g id="Group_110" data-name="Group 110" transform="translate(274.157 12.41)">
      <circle id="Ellipse_35" data-name="Ellipse 35" cx="8.581" cy="8.581" r="8.581" transform="translate(0 11.057) rotate(-40.114)"/>
      <path id="Path_77" data-name="Path 77" d="M656.08,812.966a10.914,10.914,0,1,1,10.915-10.915A10.926,10.926,0,0,1,656.08,812.966Zm0-17.161a6.247,6.247,0,1,0,6.248,6.246A6.254,6.254,0,0,0,656.08,795.8Z" transform="translate(-643.99 -789.961)"/>
    </g>
  </g>
  <g id="Group_114" data-name="Group 114" transform="translate(99.413 11.667)">
    <g id="Group_112" data-name="Group 112">
      <path id="Path_78" data-name="Path 78" d="M613.667,826.551H469.246v-4.666H613.667a14,14,0,1,0-14-14H595a18.667,18.667,0,1,1,18.667,18.666Z" transform="translate(-469.246 -789.218)"/>
    </g>
    <g id="Group_113" data-name="Group 113" transform="translate(125.754 10.011)">
      <circle id="Ellipse_36" data-name="Ellipse 36" cx="6.323" cy="6.323" r="6.323" transform="translate(2.333 2.334)"/>
      <path id="Path_79" data-name="Path 79" d="M603.655,816.541a8.656,8.656,0,1,1,8.657-8.656A8.666,8.666,0,0,1,603.655,816.541Zm0-12.645a3.99,3.99,0,1,0,3.99,3.989A3.993,3.993,0,0,0,603.655,803.9Z" transform="translate(-595 -799.229)"/>
    </g>
  </g>
  <g id="Group_117" data-name="Group 117" transform="translate(336)">
    <g id="Group_115" data-name="Group 115">
      <path id="Path_80" data-name="Path 80" d="M1030.167,826.551H730.333a24.5,24.5,0,1,1,24.5-24.5h-4.666a19.833,19.833,0,1,0-19.834,19.834h299.834Z" transform="translate(-705.833 -777.551)"/>
    </g>
    <g id="Group_116" data-name="Group 116" transform="translate(26 12.415)">
      <circle id="Ellipse_37" data-name="Ellipse 37" cx="8.581" cy="8.581" r="8.581" transform="matrix(0.768, -0.641, 0.641, 0.768, 0, 10.999)"/>
      <path id="Path_81" data-name="Path 81" d="M743.92,812.966a10.914,10.914,0,1,1,10.913-10.915A10.928,10.928,0,0,1,743.92,812.966Zm0-17.161a6.247,6.247,0,1,0,6.247,6.246A6.254,6.254,0,0,0,743.92,795.8Z" transform="translate(-731.833 -789.966)"/>
    </g>
  </g>
  <g id="Group_120" data-name="Group 120" transform="translate(397.834 11.667)">
    <g id="Group_118" data-name="Group 118">
      <path id="Path_82" data-name="Path 82" d="M930.754,826.551H786.333A18.667,18.667,0,1,1,805,807.885h-4.667a14,14,0,1,0-14,14H930.754Z" transform="translate(-767.667 -789.218)"/>
    </g>
    <g id="Group_119" data-name="Group 119" transform="translate(20.021 10.011)">
      <circle id="Ellipse_38" data-name="Ellipse 38" cx="6.323" cy="6.323" r="6.323" transform="translate(2.333 2.334)"/>
      <path id="Path_83" data-name="Path 83" d="M796.345,816.541A8.656,8.656,0,1,1,805,807.885,8.666,8.666,0,0,1,796.345,816.541Zm0-12.645a3.99,3.99,0,1,0,3.988,3.989A3.994,3.994,0,0,0,796.345,803.9Z" transform="translate(-787.688 -799.229)"/>
    </g>
  </g>
</svg>
