<svg xmlns="http://www.w3.org/2000/svg" viewBox="0 0 1019.666 91.615">
  <g id="Group_423" data-name="Group 423" transform="translate(1209.833 842.333) rotate(180)">
    <g id="Group_108" data-name="Group 108">
      <g id="Group_97" data-name="Group 97">
        <g id="Group_93" data-name="Group 93">
          <g id="Group_88" data-name="Group 88">
            <path id="Path_62" data-name="Path 62" d="M268.917,842.333a23.332,23.332,0,0,1-16.5-39.831l3.3,3.3a18.666,18.666,0,1,0,26.4,26.4l33-33a25.667,25.667,0,1,0-36.3-36.3c-.432.437-10.558,10.891-.825,20.624l-3.3,3.3c-6.835-6.835-6.2-13.964-4.462-18.74a25.415,25.415,0,0,1,5.287-8.483,30.332,30.332,0,1,1,42.9,42.9l-33,33A23.172,23.172,0,0,1,268.917,842.333Z"/>
          </g>
          <g id="Group_89" data-name="Group 89">
            <circle id="Ellipse_27" data-name="Ellipse 27" cx="8.581" cy="8.581" r="8.581" transform="translate(273.535 770.236)"/>
            <path id="Path_63" data-name="Path 63" d="M282.116,789.725a10.908,10.908,0,1,1,7.717-3.191A10.876,10.876,0,0,1,282.116,789.725Zm0-17.152a6.244,6.244,0,1,0,4.417,1.826A6.224,6.224,0,0,0,282.117,772.573Z"/>
          </g>
          <g id="Group_90" data-name="Group 90">
            <circle id="Ellipse_28" data-name="Ellipse 28" cx="8.581" cy="8.581" r="8.581" transform="translate(251.262 801.93)"/>
            <path id="Path_64" data-name="Path 64" d="M259.842,821.425a10.914,10.914,0,1,1,7.718-3.2A10.838,10.838,0,0,1,259.842,821.425Zm0-17.161a6.247,6.247,0,1,0,4.418,1.83A6.2,6.2,0,0,0,259.842,804.264Z"/>
          </g>
          <g id="Group_91" data-name="Group 91">
            <path id="Path_65" data-name="Path 65" d="M348.112,832.2l-3.3-3.3a18.668,18.668,0,0,0-26.4-26.4l-3.3-3.3a23.333,23.333,0,0,1,33,33Z"/>
          </g>
          <g id="Group_92" data-name="Group 92">
            <circle id="Ellipse_29" data-name="Ellipse 29" cx="8.581" cy="8.581" r="8.581" transform="translate(332.107 815.609)"/>
            <path id="Path_66" data-name="Path 66" d="M340.688,835.1a10.908,10.908,0,1,1,7.717-3.191A10.878,10.878,0,0,1,340.688,835.1Zm0-17.152a6.244,6.244,0,1,0,4.418,1.826A6.227,6.227,0,0,0,340.687,817.945Z"/>
          </g>
        </g>
        <g id="Group_96" data-name="Group 96">
          <g id="Group_94" data-name="Group 94">
            <path id="Path_67" data-name="Path 67" d="M712.25,842.333H214.667a24.5,24.5,0,1,1,24.5-24.5H234.5a19.834,19.834,0,1,0-19.833,19.834H712.25Z"/>
          </g>
          <g id="Group_95" data-name="Group 95">
            <circle id="Ellipse_30" data-name="Ellipse 30" cx="8.581" cy="8.581" r="8.581" transform="matrix(0.643, -0.766, 0.766, 0.643, 216.163, 818.884)"/>
            <path id="Path_68" data-name="Path 68" d="M228.253,828.747a10.914,10.914,0,1,1,10.914-10.914A10.927,10.927,0,0,1,228.253,828.747Zm0-17.161a6.247,6.247,0,1,0,6.247,6.247A6.255,6.255,0,0,0,228.253,811.586Z"/>
          </g>
        </g>
      </g>
      <g id="Group_107" data-name="Group 107">
        <g id="Group_103" data-name="Group 103">
          <g id="Group_98" data-name="Group 98">
            <path id="Path_69" data-name="Path 69" d="M1131.083,842.333a23.172,23.172,0,0,1-16.5-6.835l-33-33a30.332,30.332,0,1,1,42.9-42.9,25.434,25.434,0,0,1,5.287,8.483c1.737,4.776,2.373,11.905-4.462,18.74l-3.3-3.3c4.092-4.092,5.228-8.751,3.375-13.845a20.675,20.675,0,0,0-4.2-6.779,25.667,25.667,0,1,0-36.3,36.3l33,33a18.666,18.666,0,1,0,26.4-26.4l3.3-3.3a23.333,23.333,0,0,1-16.5,39.831Z"/>
          </g>
          <g id="Group_99" data-name="Group 99">
            <circle id="Ellipse_31" data-name="Ellipse 31" cx="8.581" cy="8.581" r="8.581" transform="translate(1109.303 770.236)"/>
            <path id="Path_70" data-name="Path 70" d="M1117.884,789.725a10.908,10.908,0,1,1,7.717-3.191A10.878,10.878,0,0,1,1117.884,789.725Zm0-17.152a6.244,6.244,0,1,0,4.418,1.826A6.226,6.226,0,0,0,1117.883,772.573Z"/>
          </g>
          <g id="Group_100" data-name="Group 100">
            <circle id="Ellipse_32" data-name="Ellipse 32" cx="8.581" cy="8.581" r="8.581" transform="translate(1131.577 801.93)"/>
            <path id="Path_71" data-name="Path 71" d="M1140.158,821.425a10.914,10.914,0,1,1,7.717-3.2A10.844,10.844,0,0,1,1140.158,821.425Zm0-17.161a6.247,6.247,0,1,0,4.417,1.83A6.2,6.2,0,0,0,1140.158,804.264Z"/>
          </g>
          <g id="Group_101" data-name="Group 101">
            <path id="Path_72" data-name="Path 72" d="M1051.888,832.2a23.333,23.333,0,0,1,33-33l-3.3,3.3a18.668,18.668,0,0,0-26.4,26.4Z"/>
          </g>
          <g id="Group_102" data-name="Group 102">
            <circle id="Ellipse_33" data-name="Ellipse 33" cx="8.581" cy="8.581" r="8.581" transform="translate(1050.731 815.609)"/>
            <path id="Path_73" data-name="Path 73" d="M1059.312,835.1a10.908,10.908,0,1,1,7.718-3.191A10.876,10.876,0,0,1,1059.312,835.1Zm0-17.152a6.244,6.244,0,1,0,4.417,1.826A6.224,6.224,0,0,0,1059.313,817.945Z"/>
          </g>
        </g>
        <g id="Group_106" data-name="Group 106">
          <g id="Group_104" data-name="Group 104">
            <path id="Path_74" data-name="Path 74" d="M1185.333,842.333H712.25v-4.666h473.083a19.833,19.833,0,1,0-19.833-19.834h-4.667a24.5,24.5,0,1,1,24.5,24.5Z"/>
          </g>
          <g id="Group_105" data-name="Group 105">
            <circle id="Ellipse_34" data-name="Ellipse 34" cx="8.581" cy="8.581" r="8.581" transform="translate(1159.612 817.833) rotate(-45)"/>
            <path id="Path_75" data-name="Path 75" d="M1171.747,828.747a10.914,10.914,0,1,1,10.915-10.914A10.926,10.926,0,0,1,1171.747,828.747Zm0-17.161a6.247,6.247,0,1,0,6.248,6.247A6.255,6.255,0,0,0,1171.747,811.586Z"/>
          </g>
        </g>
      </g>
    </g>
    <g id="Group_121" data-name="Group 121">
      <g id="Group_111" data-name="Group 111">
        <g id="Group_109" data-name="Group 109">
          <path id="Path_76" data-name="Path 76" d="M669.667,826.551H369.833v-4.666H669.667a19.833,19.833,0,1,0-19.834-19.834h-4.666a24.5,24.5,0,1,1,24.5,24.5Z"/>
        </g>
        <g id="Group_110" data-name="Group 110">
          <circle id="Ellipse_35" data-name="Ellipse 35" cx="8.581" cy="8.581" r="8.581" transform="translate(643.99 801.018) rotate(-40.114)"/>
          <path id="Path_77" data-name="Path 77" d="M656.08,812.966a10.914,10.914,0,1,1,10.915-10.915A10.926,10.926,0,0,1,656.08,812.966Zm0-17.161a6.247,6.247,0,1,0,6.248,6.246A6.254,6.254,0,0,0,656.08,795.8Z"/>
        </g>
      </g>
      <g id="Group_114" data-name="Group 114">
        <g id="Group_112" data-name="Group 112">
          <path id="Path_78" data-name="Path 78" d="M613.667,826.551H469.246v-4.666H613.667a14,14,0,1,0-14-14H595a18.667,18.667,0,1,1,18.667,18.666Z"/>
        </g>
        <g id="Group_113" data-name="Group 113">
          <circle id="Ellipse_36" data-name="Ellipse 36" cx="6.323" cy="6.323" r="6.323" transform="translate(597.333 801.563)"/>
          <path id="Path_79" data-name="Path 79" d="M603.655,816.541a8.656,8.656,0,1,1,8.657-8.656A8.666,8.666,0,0,1,603.655,816.541Zm0-12.645a3.99,3.99,0,1,0,3.99,3.989A3.993,3.993,0,0,0,603.655,803.9Z"/>
        </g>
      </g>
      <g id="Group_117" data-name="Group 117">
        <g id="Group_115" data-name="Group 115">
          <path id="Path_80" data-name="Path 80" d="M1030.167,826.551H730.333a24.5,24.5,0,1,1,24.5-24.5h-4.666a19.833,19.833,0,1,0-19.834,19.834h299.834Z"/>
        </g>
        <g id="Group_116" data-name="Group 116">
          <circle id="Ellipse_37" data-name="Ellipse 37" cx="8.581" cy="8.581" r="8.581" transform="matrix(0.768, -0.641, 0.641, 0.768, 731.833, 800.964)"/>
          <path id="Path_81" data-name="Path 81" d="M743.92,812.966a10.914,10.914,0,1,1,10.913-10.915A10.928,10.928,0,0,1,743.92,812.966Zm0-17.161a6.247,6.247,0,1,0,6.247,6.246A6.254,6.254,0,0,0,743.92,795.8Z"/>
        </g>
      </g>
      <g id="Group_120" data-name="Group 120">
        <g id="Group_118" data-name="Group 118">
          <path id="Path_82" data-name="Path 82" d="M930.754,826.551H786.333A18.667,18.667,0,1,1,805,807.885h-4.667a14,14,0,1,0-14,14H930.754Z"/>
        </g>
        <g id="Group_119" data-name="Group 119">
          <circle id="Ellipse_38" data-name="Ellipse 38" cx="6.323" cy="6.323" r="6.323" transform="translate(790.021 801.563)"/>
          <path id="Path_83" data-name="Path 83" d="M796.345,816.541A8.656,8.656,0,1,1,805,807.885,8.666,8.666,0,0,1,796.345,816.541Zm0-12.645a3.99,3.99,0,1,0,3.988,3.989A3.994,3.994,0,0,0,796.345,803.9Z"/>
        </g>
      </g>
    </g>
  </g>
</svg>
