<svg xmlns="http://www.w3.org/2000/svg" viewBox="0 0 970.655 94.5">
  <defs>
    <style>
      .cls-1 {
        fill: #514d4a;
      }
    </style>
  </defs>
  <g id="Group_432" data-name="Group 432" transform="translate(1179.494 1330) rotate(180)">
    <g id="Group_227" data-name="Group 227">
      <g id="Group_224" data-name="Group 224">
        <path id="Path_136" data-name="Path 136" d="M362.833,1303.167c-12.374,0-22.81-10.726-33.859-22.082-10.646-10.939-21.653-22.252-33.807-22.252a19.833,19.833,0,1,0,0,39.667v4.667a24.5,24.5,0,0,1,0-49c14.124,0,25.83,12.03,37.151,23.665,10.342,10.628,20.112,20.668,30.515,20.668a14,14,0,0,0,0-28v-4.667a18.667,18.667,0,0,1,0,37.334Z"/>
      </g>
      <g id="Group_225" data-name="Group 225">
        <circle id="Ellipse_62" data-name="Ellipse 62" cx="10.5" cy="10.5" r="10.5" transform="translate(284.667 1279.833)"/>
        <path id="Path_137" data-name="Path 137" d="M295.167,1303.167A12.833,12.833,0,1,1,308,1290.333,12.848,12.848,0,0,1,295.167,1303.167Zm0-21a8.167,8.167,0,1,0,8.166,8.166A8.176,8.176,0,0,0,295.167,1282.167Z"/>
      </g>
      <g id="Group_226" data-name="Group 226">
        <path id="Path_138" data-name="Path 138" d="M368.667,1274a5.833,5.833,0,1,0-5.834,5.833A5.833,5.833,0,0,0,368.667,1274Z"/>
        <path id="Path_139" data-name="Path 139" d="M362.833,1282.167A8.167,8.167,0,1,1,371,1274,8.176,8.176,0,0,1,362.833,1282.167Zm0-11.667a3.5,3.5,0,1,0,3.5,3.5A3.5,3.5,0,0,0,362.833,1270.5Z"/>
      </g>
    </g>
    <g id="Group_228" data-name="Group 228">
      <line id="Line_3" data-name="Line 3" class="cls-1" x2="374.5" transform="translate(325.5 1261.167)"/>
      <rect id="Rectangle_24" data-name="Rectangle 24" width="374.5" height="4.667" transform="translate(325.5 1258.833)"/>
    </g>
    <g id="Group_231" data-name="Group 231">
      <g id="Group_229" data-name="Group 229">
        <path id="Path_140" data-name="Path 140" d="M628.911,1312.5a24.139,24.139,0,0,1-24.111-24.111,29.59,29.59,0,0,1,29.556-29.556v4.667a24.917,24.917,0,0,0-24.889,24.889,19.466,19.466,0,0,0,19.444,19.444A15.106,15.106,0,0,0,644,1292.744a11.618,11.618,0,0,0-11.6-11.6,8.827,8.827,0,0,0-8.817,8.817,6.593,6.593,0,0,0,6.586,6.587,4.809,4.809,0,0,0,4.8-4.8h4.666a9.48,9.48,0,0,1-9.47,9.47,11.266,11.266,0,0,1-11.253-11.253,13.5,13.5,0,0,1,13.484-13.483,16.288,16.288,0,0,1,16.271,16.27A19.779,19.779,0,0,1,628.911,1312.5Z"/>
      </g>
      <g id="Group_230" data-name="Group 230">
        <circle id="Ellipse_63" data-name="Ellipse 63" cx="4.84" cy="4.84" r="4.84" transform="translate(627.654 1287.065)"/>
        <path id="Path_141" data-name="Path 141" d="M632.494,1299.078a7.173,7.173,0,1,1,7.173-7.173A7.181,7.181,0,0,1,632.494,1299.078Zm0-9.679a2.506,2.506,0,1,0,2.506,2.506A2.509,2.509,0,0,0,632.494,1289.4Z"/>
      </g>
    </g>
    <g id="Group_232" data-name="Group 232">
      <path id="Path_142" data-name="Path 142" d="M716.333,1283.333c0-19.008-16.333-22.166-16.333-22.166s-16.333,3.158-16.333,22.166S700,1330,700,1330,716.333,1302.341,716.333,1283.333Z"/>
    </g>
    <g id="Group_233" data-name="Group 233">
      <path id="Path_143" data-name="Path 143" d="M692.049,1281.992c9.217-9.217,2.829-18.669,2.829-18.669s-9.452-6.389-18.669,2.828S661.5,1296.7,661.5,1296.7,682.832,1291.209,692.049,1281.992Z"/>
    </g>
    <g id="Group_234" data-name="Group 234">
      <path id="Path_144" data-name="Path 144" d="M611.333,1265.833c-14,10.5-12.833,21-12.833,21a22.664,22.664,0,0,0,4.667,12.834s-16.334-2.334-16.334-17.5c0,0-19.833,9.333-17.5,21,2.171,10.853,15.167,8.166,15.167,0,0,0,1.167,14-12.833,14s-18.749-19.585-4.667-31.5C582.167,1272.833,611.333,1265.833,611.333,1265.833Z"/>
    </g>
    <g id="Group_235" data-name="Group 235">
      <path id="Path_145" data-name="Path 145" d="M611.333,1265.833h-80.5s-21,0-21,14c0,9.334,5.834,14,14,14,0,0,9.334,0,9.334-8.166s-11.667-9.334-14-4.667c0,0-4.667-9.333,12.833-9.333h15.167s-4.667,3.5-4.667,9.333c0,0,18.667-10.5,35-10.5h22.167Z"/>
    </g>
    <g id="Group_236" data-name="Group 236">
      <path id="Path_146" data-name="Path 146" d="M267.167,1263.5H240.333v-2.333a21.024,21.024,0,0,0-21-21V1235.5a25.7,25.7,0,0,1,25.562,23.333h22.272Z"/>
    </g>
    <g id="Group_238" data-name="Group 238">
      <circle id="Ellipse_64" data-name="Ellipse 64" cx="8.581" cy="8.581" r="8.581" transform="translate(211.167 1237.833)"/>
      <path id="Path_148" data-name="Path 148" d="M219.747,1257.323a10.909,10.909,0,1,1,7.718-3.192A10.873,10.873,0,0,1,219.747,1257.323Zm0-17.153a6.244,6.244,0,1,0,4.417,1.826A6.23,6.23,0,0,0,219.748,1240.17Z"/>
    </g>
    <g id="Group_242" data-name="Group 242">
      <g id="Group_239" data-name="Group 239">
        <path id="Path_149" data-name="Path 149" d="M1093.167,1303.167V1298.5a19.833,19.833,0,0,0,0-39.667c-12.155,0-23.162,11.313-33.807,22.252-11.05,11.356-21.486,22.082-33.86,22.082a18.667,18.667,0,0,1,0-37.334v4.667a14,14,0,0,0,0,28c10.4,0,20.173-10.04,30.516-20.668,11.32-11.635,23.026-23.665,37.151-23.665a24.5,24.5,0,0,1,0,49Z"/>
      </g>
      <g id="Group_240" data-name="Group 240">
        <circle id="Ellipse_65" data-name="Ellipse 65" cx="10.5" cy="10.5" r="10.5" transform="translate(1082.667 1279.833)"/>
        <path id="Path_150" data-name="Path 150" d="M1093.167,1303.167A12.833,12.833,0,1,1,1106,1290.333,12.848,12.848,0,0,1,1093.167,1303.167Zm0-21a8.167,8.167,0,1,0,8.166,8.166A8.176,8.176,0,0,0,1093.167,1282.167Z"/>
      </g>
      <g id="Group_241" data-name="Group 241">
        <circle id="Ellipse_66" data-name="Ellipse 66" cx="5.833" cy="5.833" r="5.833" transform="translate(1019.667 1268.167)"/>
        <path id="Path_151" data-name="Path 151" d="M1025.5,1282.167a8.167,8.167,0,1,1,8.167-8.167A8.177,8.177,0,0,1,1025.5,1282.167Zm0-11.667a3.5,3.5,0,1,0,3.5,3.5A3.5,3.5,0,0,0,1025.5,1270.5Z"/>
      </g>
    </g>
    <g id="Group_243" data-name="Group 243">
      <line id="Line_4" data-name="Line 4" class="cls-1" x1="362.833" transform="translate(700 1261.167)"/>
      <rect id="Rectangle_25" data-name="Rectangle 25" width="362.833" height="4.667" transform="translate(700 1258.833)"/>
    </g>
    <g id="Group_246" data-name="Group 246">
      <g id="Group_244" data-name="Group 244">
        <path id="Path_152" data-name="Path 152" d="M771.089,1312.5a19.779,19.779,0,0,1-19.756-19.756,16.288,16.288,0,0,1,16.271-16.27,13.5,13.5,0,0,1,13.484,13.483,11.266,11.266,0,0,1-11.253,11.253,9.48,9.48,0,0,1-9.47-9.47h4.666a4.809,4.809,0,0,0,4.8,4.8,6.593,6.593,0,0,0,6.586-6.587,8.828,8.828,0,0,0-8.817-8.817,11.618,11.618,0,0,0-11.6,11.6,15.106,15.106,0,0,0,15.089,15.089,19.466,19.466,0,0,0,19.444-19.444,24.918,24.918,0,0,0-24.889-24.889v-4.667a29.589,29.589,0,0,1,29.555,29.556A24.138,24.138,0,0,1,771.089,1312.5Z"/>
      </g>
      <g id="Group_245" data-name="Group 245">
        <circle id="Ellipse_67" data-name="Ellipse 67" cx="4.84" cy="4.84" r="4.84" transform="translate(762.667 1287.065)"/>
        <path id="Path_153" data-name="Path 153" d="M767.506,1299.078a7.173,7.173,0,1,1,7.173-7.173A7.181,7.181,0,0,1,767.506,1299.078Zm0-9.679a2.506,2.506,0,1,0,2.506,2.506A2.509,2.509,0,0,0,767.506,1289.4Z"/>
      </g>
    </g>
    <g id="Group_247" data-name="Group 247">
      <path id="Path_154" data-name="Path 154" d="M707.951,1281.992c-9.217-9.217-2.829-18.669-2.829-18.669s9.452-6.389,18.669,2.828S738.5,1296.7,738.5,1296.7,717.168,1291.209,707.951,1281.992Z"/>
    </g>
    <g id="Group_248" data-name="Group 248">
      <path id="Path_155" data-name="Path 155" d="M788.667,1265.833c14,10.5,12.833,21,12.833,21a22.664,22.664,0,0,1-4.667,12.834s16.334-2.334,16.334-17.5c0,0,19.833,9.333,17.5,21-2.171,10.853-15.167,8.166-15.167,0,0,0-1.167,14,12.833,14s18.749-19.585,4.667-31.5C817.833,1272.833,788.667,1265.833,788.667,1265.833Z"/>
    </g>
    <g id="Group_249" data-name="Group 249">
      <path id="Path_156" data-name="Path 156" d="M788.667,1265.833h80.5s21,0,21,14c0,9.334-5.834,14-14,14,0,0-9.334,0-9.334-8.166s11.667-9.334,14-4.667c0,0,4.667-9.333-12.833-9.333H852.833s4.667,3.5,4.667,9.333c0,0-18.667-10.5-35-10.5H800.333Z"/>
    </g>
    <g id="Group_250" data-name="Group 250">
      <path id="Path_157" data-name="Path 157" d="M1148,1263.5h-26.833v-4.667h22.271A25.7,25.7,0,0,1,1169,1235.5v4.667a21.024,21.024,0,0,0-21,21Z"/>
    </g>
    <g id="Group_252" data-name="Group 252">
      <circle id="Ellipse_68" data-name="Ellipse 68" cx="8.581" cy="8.581" r="8.581" transform="translate(1160.005 1237.833)"/>
      <path id="Path_159" data-name="Path 159" d="M1168.586,1257.323a10.909,10.909,0,1,1,7.717-3.192A10.871,10.871,0,0,1,1168.586,1257.323Zm0-17.153A6.244,6.244,0,1,0,1173,1242,6.231,6.231,0,0,0,1168.585,1240.17Z"/>
    </g>
  </g>
</svg>
