<svg xmlns="http://www.w3.org/2000/svg" viewBox="0 0 1041.833 71.167">
  <g id="Group_427" data-name="Group 427" transform="translate(-179.667 -439.833)">
    <g id="Group_34" data-name="Group 34">
      <g id="Group_32" data-name="Group 32">
        <path id="Path_26" data-name="Path 26" d="M700,498.167H312.667a24.5,24.5,0,1,1,24.5-24.5H332.5A19.833,19.833,0,1,0,312.667,493.5H700Z"/>
      </g>
      <g id="Group_33" data-name="Group 33">
        <circle id="Ellipse_13" data-name="Ellipse 13" cx="8.581" cy="8.581" r="8.581" transform="translate(315.758 479.758) rotate(-75.132)"/>
        <path id="Path_27" data-name="Path 27" d="M326.253,484.581a10.914,10.914,0,1,1,10.914-10.914A10.927,10.927,0,0,1,326.253,484.581Zm0-17.162a6.247,6.247,0,1,0,6.247,6.248A6.255,6.255,0,0,0,326.253,467.419Z"/>
      </g>
    </g>
    <g id="Group_37" data-name="Group 37">
      <g id="Group_35" data-name="Group 35">
        <path id="Path_28" data-name="Path 28" d="M700,511H250.833a24.5,24.5,0,1,1,24.5-24.5h-4.666a19.833,19.833,0,1,0-19.834,19.833H700Z"/>
      </g>
      <g id="Group_36" data-name="Group 36">
        <circle id="Ellipse_14" data-name="Ellipse 14" cx="8.581" cy="8.581" r="8.581" transform="translate(255.839 477.919)"/>
        <path id="Path_29" data-name="Path 29" d="M264.42,497.414A10.914,10.914,0,1,1,275.333,486.5,10.927,10.927,0,0,1,264.42,497.414Zm0-17.162a6.248,6.248,0,1,0,6.247,6.248A6.255,6.255,0,0,0,264.42,480.252Z"/>
      </g>
    </g>
    <g id="Group_41" data-name="Group 41">
      <g id="Group_38" data-name="Group 38">
        <path id="Path_30" data-name="Path 30" d="M606.667,488.833a24.5,24.5,0,0,1,0-49V444.5a19.833,19.833,0,1,0,0,39.667c12.154,0,23.161-11.313,33.807-22.253,11.049-11.355,21.485-22.081,33.859-22.081a18.667,18.667,0,0,1,0,37.334V472.5a14,14,0,0,0,0-28c-10.4,0-20.173,10.04-30.515,20.668C632.5,476.8,620.791,488.833,606.667,488.833Z"/>
      </g>
      <g id="Group_39" data-name="Group 39">
        <circle id="Ellipse_15" data-name="Ellipse 15" cx="10.5" cy="10.5" r="10.5" transform="translate(596.167 442.167)"/>
        <path id="Path_31" data-name="Path 31" d="M606.667,465.5A12.833,12.833,0,1,1,619.5,452.667,12.848,12.848,0,0,1,606.667,465.5Zm0-21a8.167,8.167,0,1,0,8.166,8.167A8.176,8.176,0,0,0,606.667,444.5Z"/>
      </g>
      <g id="Group_40" data-name="Group 40">
        <path id="Path_32" data-name="Path 32" d="M680.167,469a5.833,5.833,0,1,1-5.834-5.833A5.833,5.833,0,0,1,680.167,469Z"/>
        <path id="Path_33" data-name="Path 33" d="M674.333,477.167A8.167,8.167,0,1,1,682.5,469,8.176,8.176,0,0,1,674.333,477.167Zm0-11.667a3.5,3.5,0,1,0,3.5,3.5A3.5,3.5,0,0,0,674.333,465.5Z"/>
      </g>
    </g>
    <g id="Group_42" data-name="Group 42">
      <rect id="Rectangle_4" data-name="Rectangle 4" width="67.105" height="4.667" transform="translate(209.395 506.333)"/>
    </g>
    <g id="Group_43" data-name="Group 43">
      <path id="Path_34" data-name="Path 34" d="M241.172,510.951h-61.5l36.7-26.784S219.347,506.983,241.172,510.951Z"/>
    </g>
    <g id="Group_46" data-name="Group 46">
      <g id="Group_44" data-name="Group 44">
        <path id="Path_35" data-name="Path 35" d="M1088.5,498.167H700V493.5h388.5a19.833,19.833,0,1,0-19.833-19.833H1064a24.5,24.5,0,1,1,24.5,24.5Z"/>
      </g>
      <g id="Group_45" data-name="Group 45">
        <circle id="Ellipse_16" data-name="Ellipse 16" cx="8.581" cy="8.581" r="8.581" transform="translate(1062.779 473.667) rotate(-45)"/>
        <path id="Path_36" data-name="Path 36" d="M1074.914,484.581a10.914,10.914,0,1,1,10.914-10.914A10.926,10.926,0,0,1,1074.914,484.581Zm0-17.162a6.247,6.247,0,1,0,6.248,6.248A6.254,6.254,0,0,0,1074.914,467.419Z"/>
      </g>
    </g>
    <g id="Group_49" data-name="Group 49">
      <g id="Group_47" data-name="Group 47">
        <path id="Path_37" data-name="Path 37" d="M1150.333,511H700v-4.667h450.333A19.833,19.833,0,1,0,1130.5,486.5h-4.667a24.5,24.5,0,1,1,24.5,24.5Z"/>
      </g>
      <g id="Group_48" data-name="Group 48">
        <circle id="Ellipse_17" data-name="Ellipse 17" cx="8.581" cy="8.581" r="8.581" transform="translate(1128.167 477.919)"/>
        <path id="Path_38" data-name="Path 38" d="M1136.747,497.414a10.914,10.914,0,1,1,10.915-10.914A10.926,10.926,0,0,1,1136.747,497.414Zm0-17.162a6.248,6.248,0,1,0,6.248,6.248A6.255,6.255,0,0,0,1136.747,480.252Z"/>
      </g>
    </g>
    <g id="Group_53" data-name="Group 53">
      <g id="Group_50" data-name="Group 50">
        <path id="Path_39" data-name="Path 39" d="M793.333,488.833c-14.124,0-25.83-12.03-37.151-23.665C745.839,454.54,736.07,444.5,725.667,444.5a14,14,0,0,0,0,28v4.667a18.667,18.667,0,0,1,0-37.334c12.374,0,22.81,10.726,33.859,22.081,10.646,10.94,21.653,22.253,33.807,22.253a19.833,19.833,0,1,0,0-39.667v-4.667a24.5,24.5,0,0,1,0,49Z"/>
      </g>
      <g id="Group_51" data-name="Group 51">
        <circle id="Ellipse_18" data-name="Ellipse 18" cx="10.5" cy="10.5" r="10.5" transform="translate(782.833 442.167)"/>
        <path id="Path_40" data-name="Path 40" d="M793.333,465.5a12.833,12.833,0,1,1,12.834-12.833A12.848,12.848,0,0,1,793.333,465.5Zm0-21a8.167,8.167,0,1,0,8.167,8.167A8.176,8.176,0,0,0,793.333,444.5Z"/>
      </g>
      <g id="Group_52" data-name="Group 52">
        <circle id="Ellipse_19" data-name="Ellipse 19" cx="5.833" cy="5.833" r="5.833" transform="translate(719.833 463.167)"/>
        <path id="Path_41" data-name="Path 41" d="M725.667,477.167A8.167,8.167,0,1,1,733.833,469,8.177,8.177,0,0,1,725.667,477.167Zm0-11.667a3.5,3.5,0,1,0,3.5,3.5A3.5,3.5,0,0,0,725.667,465.5Z"/>
      </g>
    </g>
    <g id="Group_54" data-name="Group 54">
      <rect id="Rectangle_5" data-name="Rectangle 5" width="67.105" height="4.667" transform="translate(1124.667 506.333)"/>
    </g>
    <g id="Group_55" data-name="Group 55">
      <path id="Path_42" data-name="Path 42" d="M1159.995,510.951H1221.5l-36.7-26.784S1181.819,506.983,1159.995,510.951Z"/>
    </g>
  </g>
</svg>
