<svg xmlns="http://www.w3.org/2000/svg" viewBox="0 0 235.666 49">
  <defs>
    <style>
      .cls-1 {
        fill: #514d4a;
      }
    </style>
  </defs>
  <g id="Group_425" data-name="Group 425" transform="translate(-581.167 224.167)">
    <g id="Group_41" data-name="Group 41" transform="translate(-1 -664)">
      <g id="Group_38" data-name="Group 38">
        <path id="Path_30" data-name="Path 30" class="cls-1" d="M606.667,488.833a24.5,24.5,0,0,1,0-49V444.5a19.833,19.833,0,1,0,0,39.667c12.154,0,23.161-11.313,33.807-22.253,11.049-11.355,21.485-22.081,33.859-22.081a18.667,18.667,0,0,1,0,37.334V472.5a14,14,0,0,0,0-28c-10.4,0-20.173,10.04-30.515,20.668C632.5,476.8,620.791,488.833,606.667,488.833Z"/>
      </g>
      <g id="Group_39" data-name="Group 39">
        <circle id="Ellipse_15" data-name="Ellipse 15" class="cls-1" cx="10.5" cy="10.5" r="10.5" transform="translate(596.167 442.167)"/>
        <path id="Path_31" data-name="Path 31" class="cls-1" d="M606.667,465.5A12.833,12.833,0,1,1,619.5,452.667,12.848,12.848,0,0,1,606.667,465.5Zm0-21a8.167,8.167,0,1,0,8.166,8.167A8.176,8.176,0,0,0,606.667,444.5Z"/>
      </g>
      <g id="Group_40" data-name="Group 40">
        <path id="Path_32" data-name="Path 32" class="cls-1" d="M680.167,469a5.833,5.833,0,1,1-5.834-5.833A5.833,5.833,0,0,1,680.167,469Z"/>
        <path id="Path_33" data-name="Path 33" class="cls-1" d="M674.333,477.167A8.167,8.167,0,1,1,682.5,469,8.176,8.176,0,0,1,674.333,477.167Zm0-11.667a3.5,3.5,0,1,0,3.5,3.5A3.5,3.5,0,0,0,674.333,465.5Z"/>
      </g>
    </g>
    <g id="Group_53" data-name="Group 53" transform="translate(-1 -664)">
      <g id="Group_50" data-name="Group 50">
        <path id="Path_39" data-name="Path 39" class="cls-1" d="M793.333,488.833c-14.124,0-25.83-12.03-37.151-23.665C745.839,454.54,736.07,444.5,725.667,444.5a14,14,0,0,0,0,28v4.667a18.667,18.667,0,0,1,0-37.334c12.374,0,22.81,10.726,33.859,22.081,10.646,10.94,21.653,22.253,33.807,22.253a19.833,19.833,0,1,0,0-39.667v-4.667a24.5,24.5,0,0,1,0,49Z"/>
      </g>
      <g id="Group_51" data-name="Group 51">
        <circle id="Ellipse_18" data-name="Ellipse 18" class="cls-1" cx="10.5" cy="10.5" r="10.5" transform="translate(782.833 442.167)"/>
        <path id="Path_40" data-name="Path 40" class="cls-1" d="M793.333,465.5a12.833,12.833,0,1,1,12.834-12.833A12.848,12.848,0,0,1,793.333,465.5Zm0-21a8.167,8.167,0,1,0,8.167,8.167A8.176,8.176,0,0,0,793.333,444.5Z"/>
      </g>
      <g id="Group_52" data-name="Group 52">
        <circle id="Ellipse_19" data-name="Ellipse 19" class="cls-1" cx="5.833" cy="5.833" r="5.833" transform="translate(719.833 463.167)"/>
        <path id="Path_41" data-name="Path 41" class="cls-1" d="M725.667,477.167A8.167,8.167,0,1,1,733.833,469,8.177,8.177,0,0,1,725.667,477.167Zm0-11.667a3.5,3.5,0,1,0,3.5,3.5A3.5,3.5,0,0,0,725.667,465.5Z"/>
      </g>
    </g>
  </g>
</svg>
