<svg height="496pt" viewBox="0 0 496 496" width="496pt" xmlns="http://www.w3.org/2000/svg"><path d="m304 184v-128c0-4.414062-3.574219-8-8-8h-240c-4.425781 0-8 3.585938-8 8v128c0 4.414062 3.574219 8 8 8h240c4.425781 0 8-3.585938 8-8zm-16-8h-224v-112h224zm0 0"/><path d="m112 232c0-4.414062-3.574219-8-8-8h-48c-4.425781 0-8 3.585938-8 8v48c0 4.414062 3.574219 8 8 8h48c4.425781 0 8-3.585938 8-8zm-16 40h-32v-32h32zm0 0"/><path d="m208 232c0-4.414062-3.574219-8-8-8h-48c-4.425781 0-8 3.585938-8 8v48c0 4.414062 3.574219 8 8 8h48c4.425781 0 8-3.585938 8-8zm-16 40h-32v-32h32zm0 0"/><path d="m112 312c0-4.414062-3.574219-8-8-8h-48c-4.425781 0-8 3.585938-8 8v48c0 4.414062 3.574219 8 8 8h48c4.425781 0 8-3.585938 8-8zm-16 40h-32v-32h32zm0 0"/><path d="m208 312c0-4.414062-3.574219-8-8-8h-48c-4.425781 0-8 3.585938-8 8v48c0 4.414062 3.574219 8 8 8h48c4.425781 0 8-3.585938 8-8zm-16 40h-32v-32h32zm0 0"/><path d="m104 384h-48c-4.425781 0-8 3.585938-8 8v48c0 4.414062 3.574219 8 8 8h48c4.425781 0 8-3.585938 8-8v-48c0-4.414062-3.574219-8-8-8zm-8 48h-32v-32h32zm0 0"/><path d="m200 384h-48c-4.425781 0-8 3.585938-8 8v48c0 4.414062 3.574219 8 8 8h48c4.425781 0 8-3.585938 8-8v-48c0-4.414062-3.574219-8-8-8zm-8 48h-32v-32h32zm0 0"/><path d="m120 160h32c4.425781 0 8-3.585938 8-8v-64c0-4.414062-3.574219-8-8-8h-32c-4.425781 0-8 3.585938-8 8v64c0 4.414062 3.574219 8 8 8zm8-64h16v48h-16zm0 0"/><path d="m176 160h32c4.425781 0 8-3.585938 8-8v-64c0-4.414062-3.574219-8-8-8h-32c-4.425781 0-8 3.585938-8 8v64c0 4.414062 3.574219 8 8 8zm8-64h16v48h-16zm0 0"/><path d="m232 160h32c4.425781 0 8-3.585938 8-8v-64c0-4.414062-3.574219-8-8-8h-32c-4.425781 0-8 3.585938-8 8v64c0 4.414062 3.574219 8 8 8zm8-64h16v48h-16zm0 0"/><path d="m80 144h16v16h-16zm0 0"/><path d="m368 352v-80h-16v80h-80v16h80v80h16v-80h80v-16zm0 0"/><path d="m288 304h48v16h-48zm0 0"/><path d="m288 400h48v16h-48zm0 0"/><path d="m360 224c-2.703125 0-5.335938.246094-8 .40625v-216.40625c0-4.414062-3.574219-8-8-8h-336c-4.425781 0-8 3.585938-8 8v480c0 4.414062 3.574219 8 8 8h264v-16h-256v-464h320v210.246094c-11.207031 2.011718-21.921875 5.378906-32 9.953125v-4.199219c0-4.414062-3.574219-8-8-8h-48c-4.425781 0-8 3.585938-8 8v48c0 3.414062 2.160156 6.289062 5.175781 7.433594-13.335937 21.023437-21.175781 45.871094-21.175781 72.566406 0 57.054688 36.023438 108.449219 89.640625 127.886719 14.839844 5.386719 30.4375 8.113281 46.359375 8.113281 74.992188 0 136-61.007812 136-136s-61.007812-136-136-136zm-104 48v-32h32v4.832031c-11.839844 7.433594-22.480469 16.566407-31.503906 27.167969zm104 208c-14.0625 0-27.824219-2.40625-40.902344-7.152344-47.304687-17.152344-79.097656-62.503906-79.097656-112.847656 0-66.167969 53.832031-120 120-120s120 53.832031 120 120-53.832031 120-120 120zm0 0"/><path d="m418.34375 386.34375-10.34375 10.34375-10.34375-10.34375-11.3125 11.3125 10.34375 10.34375-10.34375 10.34375 11.3125 11.3125 10.34375-10.34375 10.34375 10.34375 11.3125-11.3125-10.34375-10.34375 10.34375-10.34375zm0 0"/><path d="m400 336h16v-16h16v-16h-16v-16h-16v16h-16v16h16zm0 0"/><path d="m304 376h16v16h-16zm0 0"/><path d="m304 424h16v16h-16zm0 0"/></svg>